<?xml version="1.0" encoding="UTF-8"?>
<svg id="Camada_1" xmlns="http://www.w3.org/2000/svg" baseProfile="tiny" version="1.2" viewBox="0 0 2000 2236.6">
  <!-- Generator: Adobe Illustrator 30.1.0, SVG Export Plug-In . SVG Version: 2.1.1 Build 136)  -->
  <rect x="-5363.5" y="37.4" width="71.7" height="71.7" fill="none"/>
  <g>
    <g>
      <path d="M-3999.8-1681.8c15.7,21.9,45.5,63.5,68.5,95.6,22.9,32,67.6,39.4,99.6,16.5l14-10-13.3-18.5c-64.5-90.1-102.6-143.2-107.3-149.7-20.1-27.9-53.7-29.3-60.2-29.3h-121.6v386.9h88.6v-298.3h18.2c5.3,0,10.3,2.5,13.3,6.8Z" fill="#7835fe"/>
      <path d="M-3781.4-1686.3v298.3h-18.2c-5.3,0-10.3-2.5-13.3-6.8-15.7-21.9-45.5-63.5-68.5-95.6-22.9-32-67.6-39.4-99.6-16.5l-14,10,10,14c1,1.4,102.4,143,110.5,154.2,20.1,27.9,53.7,29.3,60.2,29.3h121.6v-386.9h-88.6Z" fill="#7835fe"/>
    </g>
    <g>
      <path d="M-3427.7-1671.5h61.8v270.2h-46.3l-104.2-146.7v146.7h-61.8v-270.2h46.3l104.2,146.7v-146.7Z" fill="#f2f2f2"/>
      <path d="M-3269.9-1474.6c6.7,18,22.1,27,46.3,27s28-4.9,37.1-14.7l46.3,26.6c-19,26.5-47.1,39.8-84.1,39.8s-58.4-9.6-77.8-28.9c-19.4-19.3-29.1-43.6-29.1-73s9.6-53.3,28.8-72.8c19.2-19.4,43.8-29.1,73.9-29.1s51.4,9.7,70.1,29.1c18.7,19.4,28,43.7,28,72.8s-.8,16-2.3,23.2h-137ZM-3271-1517.9h83c-5.7-20.3-19.3-30.5-40.9-30.5s-36.4,10.2-42.1,30.5Z" fill="#f2f2f2"/>
      <path d="M-2881.6-1599.7c22.1,0,39.9,7.3,53.3,21.8,13.4,14.5,20.1,33.9,20.1,58.1v118.5h-57.9v-113.5c0-9.8-2.4-17.5-7.1-23.2-4.8-5.7-11.6-8.5-20.7-8.5s-16.9,3.2-22.2,9.6c-5.3,6.4-7.9,15.3-7.9,26.6v108.9h-57.9v-113.5c0-9.8-2.4-17.5-7.1-23.2-4.8-5.7-11.6-8.5-20.7-8.5s-16.9,3.2-22.2,9.6c-5.3,6.4-7.9,15.3-7.9,26.6v108.9h-57.9v-193h57.9v17.8c10.5-15.4,27.8-23.2,51.7-23.2s39.2,8.5,50.6,25.5c11.8-17,30.5-25.5,56-25.5Z" fill="#f2f2f2"/>
      <path d="M-2716.7-1474.6c6.7,18,22.1,27,46.3,27s28-4.9,37.1-14.7l46.3,26.6c-19,26.5-47.1,39.8-84.1,39.8s-58.4-9.6-77.8-28.9c-19.4-19.3-29.1-43.6-29.1-73s9.6-53.3,28.8-72.8c19.2-19.4,43.8-29.1,73.9-29.1s51.4,9.7,70.1,29.1c18.7,19.4,28,43.7,28,72.8s-.8,16-2.3,23.2h-137ZM-2717.9-1517.9h83c-5.7-20.3-19.3-30.5-40.9-30.5s-36.4,10.2-42.1,30.5Z" fill="#f2f2f2"/>
      <path d="M-2480.5-1455.3h76.8v54h-154.4v-38.6l73-100.4h-69.1v-54h146.7v38.6l-73,100.4Z" fill="#f2f2f2"/>
      <path d="M-2315.5-1621.5c-6.8,6.8-15,10.2-24.5,10.2s-17.7-3.4-24.5-10.2c-6.8-6.8-10.2-15-10.2-24.5s3.4-17.7,10.2-24.5c6.8-6.8,15-10.2,24.5-10.2s17.7,3.4,24.5,10.2c6.8,6.8,10.2,15,10.2,24.5s-3.4,17.7-10.2,24.5ZM-2369-1401.3v-193h57.9v193h-57.9Z" fill="#f2f2f2"/>
      <path d="M-2196.8-1455.3h76.8v54h-154.4v-38.6l73-100.4h-69.1v-54h146.7v38.6l-73,100.4Z" fill="#f2f2f2"/>
    </g>
  </g>
  <g>
    <path d="M-3557.3,446.9c73.5,102.5,213,297.3,320.7,447.7,107.3,149.8,316.4,184.3,466.2,77.1l65.6-47-62-86.6c-301.9-421.6-480.2-670.4-502-700.7C-3363.1,6.7-3520.3,0-3550.9,0h-569.1v1811.2h414.8V414.8h85.4c24.8,0,48,11.9,62.4,32.1Z" fill="#7835fe"/>
    <path d="M-2534.8,425.4v1396.4h-85.4c-24.8,0-48-11.9-62.4-32.1-73.5-102.5-213-297.3-320.7-447.7-107.3-149.8-316.4-184.3-466.2-77.1l-65.6,47,47,65.6c4.7,6.6,479.4,669.4,517.1,721.8,94.2,130.6,251.4,137.3,282,137.3h569.1V425.4h-414.8Z" fill="#7835fe"/>
  </g>
  <g>
    <path d="M-1497.3,446.9c73.5,102.5,213,297.3,320.7,447.7,107.3,149.8,316.4,184.3,466.2,77.1l65.6-47-62-86.6c-301.9-421.6-480.2-670.4-502-700.7C-1303.1,6.7-1460.3,0-1490.9,0h-569.1v1811.2h414.8V414.8h85.4c24.8,0,48,11.9,62.4,32.1Z" fill="#f2f2f2"/>
    <path d="M-474.8,425.4v1396.4h-85.4c-24.8,0-48-11.9-62.4-32.1-73.5-102.5-213-297.3-320.7-447.7-107.3-149.8-316.4-184.3-466.2-77.1l-65.6,47,47,65.6c4.7,6.6,479.4,669.4,517.1,721.8,94.2,130.6,251.4,137.3,282,137.3H-60V425.4h-414.8Z" fill="#f2f2f2"/>
  </g>
  <g>
    <path d="M562.7,446.9c73.5,102.5,213,297.3,320.7,447.7,107.3,149.8,316.4,184.3,466.2,77.1l65.6-47-62-86.6c-301.9-421.6-480.2-670.4-502-700.7C756.9,6.7,599.7,0,569.1,0H0v1811.2h414.8V414.8h85.4c24.8,0,48,11.9,62.4,32.1Z" fill="#000106"/>
    <path d="M1585.2,425.4v1396.4h-85.4c-24.8,0-48-11.9-62.4-32.1-73.5-102.5-213-297.3-320.7-447.7-107.3-149.8-316.4-184.3-466.2-77.1l-65.6,47,47,65.6c4.7,6.6,479.4,669.4,517.1,721.8,94.2,130.6,251.4,137.3,282,137.3h569.1V425.4h-414.8Z" fill="#000106"/>
  </g>
  <g>
    <g>
      <path d="M-1205.4-1090.2c24.5,34.2,71.2,99.3,107.1,149.5,35.8,50,105.7,61.6,155.7,25.7l21.9-15.7-20.7-28.9c-100.8-140.8-160.4-223.9-167.7-234.1-31.5-43.6-84-45.9-94.2-45.9h-190.1v605h138.6v-466.4h28.5c8.3,0,16,4,20.9,10.7Z" fill="#f2f2f2"/>
      <path d="M-863.8-1097.3v466.4h-28.5c-8.3,0-16-4-20.9-10.7-24.5-34.2-71.2-99.3-107.1-149.5-35.8-50-105.7-61.6-155.7-25.7l-21.9,15.7,15.7,21.9c1.6,2.2,160.1,223.6,172.7,241.1,31.5,43.6,84,45.9,94.2,45.9h190.1v-605h-138.6Z" fill="#f2f2f2"/>
    </g>
    <g>
      <path d="M-1853.5-430.6h84.7V-60h-63.5l-142.9-201.2V-60h-84.7v-370.6h63.5l142.9,201.2v-201.2Z" fill="#7835fe"/>
      <path d="M-1637-160.6c9.2,24.7,30.3,37.1,63.5,37.1s38.5-6.7,50.8-20.1l63.5,36.5c-26.1,36.4-64.6,54.5-115.4,54.5s-80-13.2-106.7-39.7c-26.7-26.5-40-59.8-40-100.1s13.1-73.1,39.4-99.8c26.3-26.6,60.1-40,101.4-40s70.5,13.3,96.1,40c25.6,26.7,38.4,59.9,38.4,99.8s-1.1,21.9-3.2,31.8h-187.9ZM-1638.6-219.9h113.8c-7.8-27.9-26.5-41.8-56.1-41.8s-49.9,13.9-57.7,41.8Z" fill="#7835fe"/>
      <path d="M-1104.5-332.1c30.3,0,54.7,10,73.1,29.9,18.3,19.9,27.5,46.5,27.5,79.7V-60h-79.4v-155.6c0-13.4-3.3-24-9.8-31.8-6.5-7.8-16-11.6-28.3-11.6s-23.2,4.4-30.4,13.2c-7.2,8.8-10.9,21-10.9,36.5V-60h-79.4v-155.6c0-13.4-3.3-24-9.8-31.8-6.5-7.8-16-11.6-28.3-11.6s-23.2,4.4-30.4,13.2c-7.2,8.8-10.9,21-10.9,36.5V-60h-79.4v-264.7h79.4v24.4c14.5-21.2,38.1-31.8,70.9-31.8s53.8,11.6,69.3,34.9c16.2-23.3,41.8-34.9,76.8-34.9Z" fill="#7835fe"/>
      <path d="M-878.4-160.6c9.2,24.7,30.3,37.1,63.5,37.1s38.5-6.7,50.8-20.1l63.5,36.5c-26.1,36.4-64.6,54.5-115.4,54.5s-80-13.2-106.7-39.7c-26.7-26.5-40-59.8-40-100.1s13.1-73.1,39.4-99.8c26.3-26.6,60.1-40,101.4-40s70.5,13.3,96.1,40c25.6,26.7,38.4,59.9,38.4,99.8s-1.1,21.9-3.2,31.8h-187.9ZM-880-219.9h113.8c-7.8-27.9-26.5-41.8-56.1-41.8s-49.9,13.9-57.7,41.8Z" fill="#7835fe"/>
      <path d="M-554.4-134.1h105.3V-60h-211.8v-52.9l100.1-137.6h-94.8v-74.1h201.2v52.9l-100.1,137.6Z" fill="#7835fe"/>
      <path d="M-328.1-362c-9.4,9.4-20.6,14-33.6,14s-24.3-4.7-33.6-14c-9.4-9.3-14-20.6-14-33.6s4.7-24.3,14-33.6c9.3-9.3,20.6-14,33.6-14s24.3,4.7,33.6,14c9.3,9.4,14,20.6,14,33.6s-4.7,24.3-14,33.6ZM-401.5-60v-264.7h79.4V-60h-79.4Z" fill="#7835fe"/>
      <path d="M-165.3-134.1H-60V-60h-211.8v-52.9l100.1-137.6h-94.8v-74.1H-65.3v52.9l-100.1,137.6Z" fill="#7835fe"/>
    </g>
  </g>
  <g>
    <g>
      <path d="M-3265.4-1093.9c24.5,34.2,71.2,99.3,107.1,149.5,35.8,50,105.7,61.6,155.7,25.7l21.9-15.7-20.7-28.9c-100.8-140.8-160.4-223.9-167.7-234.1-31.5-43.6-84-45.9-94.2-45.9h-190.1v605h138.6v-466.4h28.5c8.3,0,16,4,20.9,10.7Z" fill="#7835fe"/>
      <path d="M-2923.8-1101v466.4h-28.5c-8.3,0-16-4-20.9-10.7-24.5-34.2-71.2-99.3-107.1-149.5-35.8-50-105.7-61.6-155.7-25.7l-21.9,15.7,15.7,21.9c1.6,2.2,160.1,223.6,172.7,241.1,31.5,43.6,84,45.9,94.2,45.9h190.1v-605h-138.6Z" fill="#7835fe"/>
    </g>
    <g>
      <path d="M-3913.5-434.3h84.7V-63.7h-63.5l-142.9-201.2V-63.7h-84.7v-370.6h63.5l142.9,201.2v-201.2Z" fill="#f2f2f2"/>
      <path d="M-3697-164.3c9.2,24.7,30.3,37.1,63.5,37.1s38.5-6.7,50.8-20.1l63.5,36.5c-26.1,36.4-64.6,54.5-115.4,54.5s-80-13.2-106.7-39.7c-26.7-26.5-40-59.8-40-100.1s13.1-73.1,39.4-99.8c26.3-26.6,60.1-40,101.4-40s70.5,13.3,96.1,40c25.6,26.7,38.4,59.9,38.4,99.8s-1.1,21.9-3.2,31.8h-187.9ZM-3698.6-223.6h113.8c-7.8-27.9-26.5-41.8-56.1-41.8s-49.9,13.9-57.7,41.8Z" fill="#f2f2f2"/>
      <path d="M-3164.5-335.8c30.3,0,54.7,10,73.1,29.9,18.3,19.9,27.5,46.5,27.5,79.7V-63.7h-79.4v-155.6c0-13.4-3.3-24-9.8-31.8-6.5-7.8-16-11.6-28.3-11.6s-23.2,4.4-30.4,13.2c-7.2,8.8-10.9,21-10.9,36.5V-63.7h-79.4v-155.6c0-13.4-3.3-24-9.8-31.8-6.5-7.8-16-11.6-28.3-11.6s-23.2,4.4-30.4,13.2c-7.2,8.8-10.9,21-10.9,36.5V-63.7h-79.4v-264.7h79.4v24.4c14.5-21.2,38.1-31.8,70.9-31.8s53.8,11.6,69.3,34.9c16.2-23.3,41.8-34.9,76.8-34.9Z" fill="#f2f2f2"/>
      <path d="M-2938.4-164.3c9.2,24.7,30.3,37.1,63.5,37.1s38.5-6.7,50.8-20.1l63.5,36.5c-26.1,36.4-64.6,54.5-115.4,54.5s-80-13.2-106.7-39.7c-26.7-26.5-40-59.8-40-100.1s13.1-73.1,39.4-99.8c26.3-26.6,60.1-40,101.4-40s70.5,13.3,96.1,40c25.6,26.7,38.4,59.9,38.4,99.8s-1.1,21.9-3.2,31.8h-187.9ZM-2940-223.6h113.8c-7.8-27.9-26.5-41.8-56.1-41.8s-49.9,13.9-57.7,41.8Z" fill="#f2f2f2"/>
      <path d="M-2614.4-137.8h105.3V-63.7h-211.8v-52.9l100.1-137.6h-94.8v-74.1h201.2v52.9l-100.1,137.6Z" fill="#f2f2f2"/>
      <path d="M-2388.1-365.7c-9.4,9.4-20.6,14-33.6,14s-24.3-4.7-33.6-14c-9.4-9.3-14-20.6-14-33.6s4.7-24.3,14-33.6c9.3-9.3,20.6-14,33.6-14s24.3,4.7,33.6,14c9.3,9.4,14,20.6,14,33.6s-4.7,24.3-14,33.6ZM-2461.5-63.7v-264.7h79.4V-63.7h-79.4Z" fill="#f2f2f2"/>
      <path d="M-2225.3-137.8h105.3V-63.7h-211.8v-52.9l100.1-137.6h-94.8v-74.1h201.2v52.9l-100.1,137.6Z" fill="#f2f2f2"/>
    </g>
  </g>
  <g>
    <g>
      <path d="M854.6-1090.2c24.5,34.2,71.2,99.3,107.1,149.5,35.8,50,105.7,61.6,155.7,25.7l21.9-15.7-20.7-28.9c-100.8-140.8-160.4-223.9-167.7-234.1-31.5-43.6-84-45.9-94.2-45.9h-190.1v605h138.6v-466.4h28.5c8.3,0,16,4,20.9,10.7Z" fill="#f2f2f2"/>
      <path d="M1196.2-1097.3v466.4h-28.5c-8.3,0-16-4-20.9-10.7-24.5-34.2-71.2-99.3-107.1-149.5-35.8-50-105.7-61.6-155.7-25.7l-21.9,15.7,15.7,21.9c1.6,2.2,160.1,223.6,172.7,241.1,31.5,43.6,84,45.9,94.2,45.9h190.1v-605h-138.6Z" fill="#f2f2f2"/>
    </g>
    <g>
      <path d="M206.5-430.6h84.7V-60h-63.5l-142.9-201.2V-60H0v-370.6h63.5l142.9,201.2v-201.2Z" fill="#f2f2f2"/>
      <path d="M423-160.6c9.2,24.7,30.3,37.1,63.5,37.1s38.5-6.7,50.8-20.1l63.5,36.5c-26.1,36.4-64.6,54.5-115.4,54.5s-80-13.2-106.7-39.7c-26.7-26.5-40-59.8-40-100.1s13.1-73.1,39.4-99.8c26.3-26.6,60.1-40,101.4-40s70.5,13.3,96.1,40c25.6,26.7,38.4,59.9,38.4,99.8s-1.1,21.9-3.2,31.8h-187.9ZM421.4-219.9h113.8c-7.8-27.9-26.5-41.8-56.1-41.8s-49.9,13.9-57.7,41.8Z" fill="#f2f2f2"/>
      <path d="M955.5-332.1c30.3,0,54.7,10,73.1,29.9,18.3,19.9,27.5,46.5,27.5,79.7V-60h-79.4v-155.6c0-13.4-3.3-24-9.8-31.8-6.5-7.8-16-11.6-28.3-11.6s-23.2,4.4-30.4,13.2c-7.2,8.8-10.9,21-10.9,36.5V-60h-79.4v-155.6c0-13.4-3.3-24-9.8-31.8-6.5-7.8-16-11.6-28.3-11.6s-23.2,4.4-30.4,13.2c-7.2,8.8-10.9,21-10.9,36.5V-60h-79.4v-264.7h79.4v24.4c14.5-21.2,38.1-31.8,70.9-31.8s53.8,11.6,69.3,34.9c16.2-23.3,41.8-34.9,76.8-34.9Z" fill="#f2f2f2"/>
      <path d="M1181.6-160.6c9.2,24.7,30.3,37.1,63.5,37.1s38.5-6.7,50.8-20.1l63.5,36.5c-26.1,36.4-64.6,54.5-115.4,54.5s-80-13.2-106.7-39.7c-26.7-26.5-40-59.8-40-100.1s13.1-73.1,39.4-99.8c26.3-26.6,60.1-40,101.4-40s70.5,13.3,96.1,40c25.6,26.7,38.4,59.9,38.4,99.8s-1.1,21.9-3.2,31.8h-187.9ZM1180-219.9h113.8c-7.8-27.9-26.5-41.8-56.1-41.8s-49.9,13.9-57.7,41.8Z" fill="#f2f2f2"/>
      <path d="M1505.6-134.1h105.3V-60h-211.8v-52.9l100.1-137.6h-94.8v-74.1h201.2v52.9l-100.1,137.6Z" fill="#f2f2f2"/>
      <path d="M1731.9-362c-9.4,9.4-20.6,14-33.6,14s-24.3-4.7-33.6-14c-9.4-9.3-14-20.6-14-33.6s4.7-24.3,14-33.6c9.3-9.3,20.6-14,33.6-14s24.3,4.7,33.6,14c9.3,9.4,14,20.6,14,33.6s-4.7,24.3-14,33.6ZM1658.5-60v-264.7h79.4V-60h-79.4Z" fill="#f2f2f2"/>
      <path d="M1894.7-134.1h105.3V-60h-211.8v-52.9l100.1-137.6h-94.8v-74.1h201.2v52.9l-100.1,137.6Z" fill="#f2f2f2"/>
    </g>
  </g>
  <g>
    <g>
      <path d="M2914.6-1093.9c24.5,34.2,71.2,99.3,107.1,149.5,35.8,50,105.7,61.6,155.7,25.7l21.9-15.7-20.7-28.9c-100.8-140.8-160.4-223.9-167.7-234.1-31.5-43.6-84-45.9-94.2-45.9h-190.1v605h138.6v-466.4h28.5c8.3,0,16,4,20.9,10.7Z" fill="#000106"/>
      <path d="M3256.2-1101v466.4h-28.5c-8.3,0-16-4-20.9-10.7-24.5-34.2-71.2-99.3-107.1-149.5-35.8-50-105.7-61.6-155.7-25.7l-21.9,15.7,15.7,21.9c1.6,2.2,160.1,223.6,172.7,241.1,31.5,43.6,84,45.9,94.2,45.9h190.1v-605h-138.6Z" fill="#000106"/>
    </g>
    <g>
      <path d="M2266.5-434.3h84.7V-63.7h-63.5l-142.9-201.2V-63.7h-84.7v-370.6h63.5l142.9,201.2v-201.2Z" fill="#000106"/>
      <path d="M2483-164.3c9.2,24.7,30.3,37.1,63.5,37.1s38.5-6.7,50.8-20.1l63.5,36.5c-26.1,36.4-64.6,54.5-115.4,54.5s-80-13.2-106.7-39.7c-26.7-26.5-40-59.8-40-100.1s13.1-73.1,39.4-99.8c26.3-26.6,60.1-40,101.4-40s70.5,13.3,96.1,40c25.6,26.7,38.4,59.9,38.4,99.8s-1.1,21.9-3.2,31.8h-187.9ZM2481.4-223.6h113.8c-7.8-27.9-26.5-41.8-56.1-41.8s-49.9,13.9-57.7,41.8Z" fill="#000106"/>
      <path d="M3015.5-335.8c30.3,0,54.7,10,73.1,29.9,18.3,19.9,27.5,46.5,27.5,79.7V-63.7h-79.4v-155.6c0-13.4-3.3-24-9.8-31.8-6.5-7.8-16-11.6-28.3-11.6s-23.2,4.4-30.4,13.2c-7.2,8.8-10.9,21-10.9,36.5V-63.7h-79.4v-155.6c0-13.4-3.3-24-9.8-31.8-6.5-7.8-16-11.6-28.3-11.6s-23.2,4.4-30.4,13.2c-7.2,8.8-10.9,21-10.9,36.5V-63.7h-79.4v-264.7h79.4v24.4c14.5-21.2,38.1-31.8,70.9-31.8s53.8,11.6,69.3,34.9c16.2-23.3,41.8-34.9,76.8-34.9Z" fill="#000106"/>
      <path d="M3241.6-164.3c9.2,24.7,30.3,37.1,63.5,37.1s38.5-6.7,50.8-20.1l63.5,36.5c-26.1,36.4-64.6,54.5-115.4,54.5s-80-13.2-106.7-39.7c-26.7-26.5-40-59.8-40-100.1s13.1-73.1,39.4-99.8c26.3-26.6,60.1-40,101.4-40s70.5,13.3,96.1,40c25.6,26.7,38.4,59.9,38.4,99.8s-1.1,21.9-3.2,31.8h-187.9ZM3240-223.6h113.8c-7.8-27.9-26.5-41.8-56.1-41.8s-49.9,13.9-57.7,41.8Z" fill="#000106"/>
      <path d="M3565.6-137.8h105.3V-63.7h-211.8v-52.9l100.1-137.6h-94.8v-74.1h201.2v52.9l-100.1,137.6Z" fill="#000106"/>
      <path d="M3791.9-365.7c-9.4,9.4-20.6,14-33.6,14s-24.3-4.7-33.6-14c-9.4-9.3-14-20.6-14-33.6s4.7-24.3,14-33.6c9.3-9.3,20.6-14,33.6-14s24.3,4.7,33.6,14c9.3,9.4,14,20.6,14,33.6s-4.7,24.3-14,33.6ZM3718.5-63.7v-264.7h79.4V-63.7h-79.4Z" fill="#000106"/>
      <path d="M3954.7-137.8h105.3V-63.7h-211.8v-52.9l100.1-137.6h-94.8v-74.1h201.2v52.9l-100.1,137.6Z" fill="#000106"/>
    </g>
  </g>
  <g>
    <g>
      <path d="M-1939.8-1681.8c15.7,21.9,45.5,63.5,68.5,95.6,22.9,32,67.6,39.4,99.6,16.5l14-10-13.3-18.5c-64.5-90.1-102.6-143.2-107.3-149.7-20.1-27.9-53.7-29.3-60.2-29.3h-121.6v386.9h88.6v-298.3h18.2c5.3,0,10.3,2.5,13.3,6.8Z" fill="#f2f2f2"/>
      <path d="M-1721.4-1686.3v298.3h-18.2c-5.3,0-10.3-2.5-13.3-6.8-15.7-21.9-45.5-63.5-68.5-95.6-22.9-32-67.6-39.4-99.6-16.5l-14,10,10,14c1,1.4,102.4,143,110.5,154.2,20.1,27.9,53.7,29.3,60.2,29.3h121.6v-386.9h-88.6Z" fill="#f2f2f2"/>
    </g>
    <g>
      <path d="M-1367.7-1671.5h61.8v270.2h-46.3l-104.2-146.7v146.7h-61.8v-270.2h46.3l104.2,146.7v-146.7Z" fill="#7835fe"/>
      <path d="M-1209.9-1474.6c6.7,18,22.1,27,46.3,27s28-4.9,37.1-14.7l46.3,26.6c-19,26.5-47.1,39.8-84.1,39.8s-58.4-9.6-77.8-28.9c-19.4-19.3-29.1-43.6-29.1-73s9.6-53.3,28.8-72.8c19.2-19.4,43.8-29.1,73.9-29.1s51.4,9.7,70.1,29.1c18.7,19.4,28,43.7,28,72.8s-.8,16-2.3,23.2h-137ZM-1211-1517.9h83c-5.7-20.3-19.3-30.5-40.9-30.5s-36.4,10.2-42.1,30.5Z" fill="#7835fe"/>
      <path d="M-821.6-1599.7c22.1,0,39.9,7.3,53.3,21.8,13.4,14.5,20.1,33.9,20.1,58.1v118.5h-57.9v-113.5c0-9.8-2.4-17.5-7.1-23.2-4.8-5.7-11.6-8.5-20.7-8.5s-16.9,3.2-22.2,9.6c-5.3,6.4-7.9,15.3-7.9,26.6v108.9h-57.9v-113.5c0-9.8-2.4-17.5-7.1-23.2-4.8-5.7-11.6-8.5-20.7-8.5s-16.9,3.2-22.2,9.6c-5.3,6.4-7.9,15.3-7.9,26.6v108.9h-57.9v-193h57.9v17.8c10.5-15.4,27.8-23.2,51.7-23.2s39.2,8.5,50.6,25.5c11.8-17,30.5-25.5,56-25.5Z" fill="#7835fe"/>
      <path d="M-656.7-1474.6c6.7,18,22.1,27,46.3,27s28-4.9,37.1-14.7l46.3,26.6c-19,26.5-47.1,39.8-84.1,39.8s-58.4-9.6-77.8-28.9c-19.4-19.3-29.1-43.6-29.1-73s9.6-53.3,28.8-72.8c19.2-19.4,43.8-29.1,73.9-29.1s51.4,9.7,70.1,29.1c18.7,19.4,28,43.7,28,72.8s-.8,16-2.3,23.2h-137ZM-657.9-1517.9h83c-5.7-20.3-19.3-30.5-40.9-30.5s-36.4,10.2-42.1,30.5Z" fill="#7835fe"/>
      <path d="M-420.5-1455.3h76.8v54h-154.4v-38.6l73-100.4h-69.1v-54h146.7v38.6l-73,100.4Z" fill="#7835fe"/>
      <path d="M-255.5-1621.5c-6.8,6.8-15,10.2-24.5,10.2s-17.7-3.4-24.5-10.2c-6.8-6.8-10.2-15-10.2-24.5s3.4-17.7,10.2-24.5c6.8-6.8,15-10.2,24.5-10.2s17.7,3.4,24.5,10.2c6.8,6.8,10.2,15,10.2,24.5s-3.4,17.7-10.2,24.5ZM-309-1401.3v-193h57.9v193h-57.9Z" fill="#7835fe"/>
      <path d="M-136.8-1455.3H-60v54h-154.4v-38.6l73-100.4h-69.1v-54H-63.9v38.6l-73,100.4Z" fill="#7835fe"/>
    </g>
  </g>
  <g>
    <g>
      <path d="M120.2-1681.8c15.7,21.9,45.5,63.5,68.5,95.6,22.9,32,67.6,39.4,99.6,16.5l14-10-13.3-18.5c-64.5-90.1-102.6-143.2-107.3-149.7-20.1-27.9-53.7-29.3-60.2-29.3H0v386.9h88.6v-298.3h18.2c5.3,0,10.3,2.5,13.3,6.8Z" fill="#f2f2f2"/>
      <path d="M338.6-1686.3v298.3h-18.2c-5.3,0-10.3-2.5-13.3-6.8-15.7-21.9-45.5-63.5-68.5-95.6-22.9-32-67.6-39.4-99.6-16.5l-14,10,10,14c1,1.4,102.4,143,110.5,154.2,20.1,27.9,53.7,29.3,60.2,29.3h121.6v-386.9h-88.6Z" fill="#f2f2f2"/>
    </g>
    <g>
      <path d="M692.3-1671.5h61.8v270.2h-46.3l-104.2-146.7v146.7h-61.8v-270.2h46.3l104.2,146.7v-146.7Z" fill="#f2f2f2"/>
      <path d="M850.1-1474.6c6.7,18,22.1,27,46.3,27s28-4.9,37.1-14.7l46.3,26.6c-19,26.5-47.1,39.8-84.1,39.8s-58.4-9.6-77.8-28.9c-19.4-19.3-29.1-43.6-29.1-73s9.6-53.3,28.8-72.8c19.2-19.4,43.8-29.1,73.9-29.1s51.4,9.7,70.1,29.1c18.7,19.4,28,43.7,28,72.8s-.8,16-2.3,23.2h-137ZM849-1517.9h83c-5.7-20.3-19.3-30.5-40.9-30.5s-36.4,10.2-42.1,30.5Z" fill="#f2f2f2"/>
      <path d="M1238.4-1599.7c22.1,0,39.9,7.3,53.3,21.8,13.4,14.5,20.1,33.9,20.1,58.1v118.5h-57.9v-113.5c0-9.8-2.4-17.5-7.1-23.2-4.8-5.7-11.6-8.5-20.7-8.5s-16.9,3.2-22.2,9.6c-5.3,6.4-7.9,15.3-7.9,26.6v108.9h-57.9v-113.5c0-9.8-2.4-17.5-7.1-23.2-4.8-5.7-11.6-8.5-20.7-8.5s-16.9,3.2-22.2,9.6c-5.3,6.4-7.9,15.3-7.9,26.6v108.9h-57.9v-193h57.9v17.8c10.5-15.4,27.8-23.2,51.7-23.2s39.2,8.5,50.6,25.5c11.8-17,30.5-25.5,56-25.5Z" fill="#f2f2f2"/>
      <path d="M1403.3-1474.6c6.7,18,22.1,27,46.3,27s28-4.9,37.1-14.7l46.3,26.6c-19,26.5-47.1,39.8-84.1,39.8s-58.4-9.6-77.8-28.9c-19.4-19.3-29.1-43.6-29.1-73s9.6-53.3,28.8-72.8c19.2-19.4,43.8-29.1,73.9-29.1s51.4,9.7,70.1,29.1c18.7,19.4,28,43.7,28,72.8s-.8,16-2.3,23.2h-137ZM1402.1-1517.9h83c-5.7-20.3-19.3-30.5-40.9-30.5s-36.4,10.2-42.1,30.5Z" fill="#f2f2f2"/>
      <path d="M1639.5-1455.3h76.8v54h-154.4v-38.6l73-100.4h-69.1v-54h146.7v38.6l-73,100.4Z" fill="#f2f2f2"/>
      <path d="M1804.5-1621.5c-6.8,6.8-15,10.2-24.5,10.2s-17.7-3.4-24.5-10.2c-6.8-6.8-10.2-15-10.2-24.5s3.4-17.7,10.2-24.5c6.8-6.8,15-10.2,24.5-10.2s17.7,3.4,24.5,10.2c6.8,6.8,10.2,15,10.2,24.5s-3.4,17.7-10.2,24.5ZM1751-1401.3v-193h57.9v193h-57.9Z" fill="#f2f2f2"/>
      <path d="M1923.2-1455.3h76.8v54h-154.4v-38.6l73-100.4h-69.1v-54h146.7v38.6l-73,100.4Z" fill="#f2f2f2"/>
    </g>
  </g>
  <g>
    <g>
      <path d="M2180.2-1681.8c15.7,21.9,45.5,63.5,68.5,95.6,22.9,32,67.6,39.4,99.6,16.5l14-10-13.3-18.5c-64.5-90.1-102.6-143.2-107.3-149.7-20.1-27.9-53.7-29.3-60.2-29.3h-121.6v386.9h88.6v-298.3h18.2c5.3,0,10.3,2.5,13.3,6.8Z" fill="#000106"/>
      <path d="M2398.6-1686.3v298.3h-18.2c-5.3,0-10.3-2.5-13.3-6.8-15.7-21.9-45.5-63.5-68.5-95.6-22.9-32-67.6-39.4-99.6-16.5l-14,10,10,14c1,1.4,102.4,143,110.5,154.2,20.1,27.9,53.7,29.3,60.2,29.3h121.6v-386.9h-88.6Z" fill="#000106"/>
    </g>
    <g>
      <path d="M2752.3-1671.5h61.8v270.2h-46.3l-104.2-146.7v146.7h-61.8v-270.2h46.3l104.2,146.7v-146.7Z" fill="#000106"/>
      <path d="M2910.1-1474.6c6.7,18,22.1,27,46.3,27s28-4.9,37.1-14.7l46.3,26.6c-19,26.5-47.1,39.8-84.1,39.8s-58.4-9.6-77.8-28.9c-19.4-19.3-29.1-43.6-29.1-73s9.6-53.3,28.8-72.8c19.2-19.4,43.8-29.1,73.9-29.1s51.4,9.7,70.1,29.1c18.7,19.4,28,43.7,28,72.8s-.8,16-2.3,23.2h-137ZM2909-1517.9h83c-5.7-20.3-19.3-30.5-40.9-30.5s-36.4,10.2-42.1,30.5Z" fill="#000106"/>
      <path d="M3298.4-1599.7c22.1,0,39.9,7.3,53.3,21.8,13.4,14.5,20.1,33.9,20.1,58.1v118.5h-57.9v-113.5c0-9.8-2.4-17.5-7.1-23.2-4.8-5.7-11.6-8.5-20.7-8.5s-16.9,3.2-22.2,9.6c-5.3,6.4-7.9,15.3-7.9,26.6v108.9h-57.9v-113.5c0-9.8-2.4-17.5-7.1-23.2-4.8-5.7-11.6-8.5-20.7-8.5s-16.9,3.2-22.2,9.6c-5.3,6.4-7.9,15.3-7.9,26.6v108.9h-57.9v-193h57.9v17.8c10.5-15.4,27.8-23.2,51.7-23.2s39.2,8.5,50.6,25.5c11.8-17,30.5-25.5,56-25.5Z" fill="#000106"/>
      <path d="M3463.3-1474.6c6.7,18,22.1,27,46.3,27s28-4.9,37.1-14.7l46.3,26.6c-19,26.5-47.1,39.8-84.1,39.8s-58.4-9.6-77.8-28.9c-19.4-19.3-29.1-43.6-29.1-73s9.6-53.3,28.8-72.8c19.2-19.4,43.8-29.1,73.9-29.1s51.4,9.7,70.1,29.1c18.7,19.4,28,43.7,28,72.8s-.8,16-2.3,23.2h-137ZM3462.1-1517.9h83c-5.7-20.3-19.3-30.5-40.9-30.5s-36.4,10.2-42.1,30.5Z" fill="#000106"/>
      <path d="M3699.5-1455.3h76.8v54h-154.4v-38.6l73-100.4h-69.1v-54h146.7v38.6l-73,100.4Z" fill="#000106"/>
      <path d="M3864.5-1621.5c-6.8,6.8-15,10.2-24.5,10.2s-17.7-3.4-24.5-10.2c-6.8-6.8-10.2-15-10.2-24.5s3.4-17.7,10.2-24.5c6.8-6.8,15-10.2,24.5-10.2s17.7,3.4,24.5,10.2c6.8,6.8,10.2,15,10.2,24.5s-3.4,17.7-10.2,24.5ZM3811-1401.3v-193h57.9v193h-57.9Z" fill="#000106"/>
      <path d="M3983.2-1455.3h76.8v54h-154.4v-38.6l73-100.4h-69.1v-54h146.7v38.6l-73,100.4Z" fill="#000106"/>
    </g>
  </g>
</svg>